<svg xmlns="http://www.w3.org/2000/svg" viewBox="0 0 200 200">
  <path d="M 100 13 C 111.16 12.85 123.78 14.1 133.68 18.7 C 143.58 23.3 152.85 32.09 159.4 40.6 C 165.95 49.11 170.07 59.87 173 69.77 C 175.93 79.67 176.85 89.86 177 100 C 177.15 110.14 176.84 120.72 173.91 130.62 C 170.98 140.52 166.11 150.95 159.4 159.4 C 152.69 167.85 143.58 176.87 133.68 181.3 C 123.78 185.73 110.84 186.92 100 186 C 89.16 185.08 77.81 180.9 68.62 175.76 C 59.43 170.62 51.48 162.87 44.85 155.15 C 38.22 147.43 33 138.66 28.86 129.47 C 24.72 120.28 21.23 110.33 20 100 C 18.77 89.67 18.62 77.96 21.47 67.47 C 24.32 56.98 29.53 45.05 37.07 37.07 C 44.61 29.09 56.21 23.63 66.7 19.62 C 77.19 15.61 88.84 13.15 100 13 Z"
        fill="#F4C0D1" stroke="#D4537E" stroke-width="5" stroke-linejoin="round"/>
  <ellipse cx="82" cy="93" rx="8" ry="8" fill="#993556"/>
  <ellipse cx="118" cy="93" rx="8" ry="8" fill="#993556"/>
  <path d="M 84 110 Q 100 130 116 110" stroke="#993556" stroke-width="5" fill="none" stroke-linecap="round"/>
</svg>
